<svg width="266" height="130" viewBox="0 0 266 130" fill="none" xmlns="http://www.w3.org/2000/svg">
<path d="M107.543 40.659L91.4736 19.2642C90.2826 17.6818 88.6995 16.3838 86.8557 15.4778C85.0119 14.5717 82.9603 14.0837 80.871 14.0541L50.3754 13.6509H50.3125C34.5682 13.6509 22.4883 16.0781 14.7082 27.924C7.46484 38.9505 4.375 57.7336 4.375 90.7286V94.761H14.3711L7.93625 125.004H16.853L23.2878 94.761H26.25C33.3954 94.8197 40.2791 92.2858 45.4147 87.7063C50.0574 83.6119 53.4062 78.0105 55.0996 71.5077L55.1149 71.4493L62.6188 38.3076H53.6801L46.5765 69.6816C44.4131 77.9177 37.9438 86.6962 26.25 86.6962H13.1414C13.379 58.1505 16.199 41.2263 22.1936 32.0993C27.2248 24.4377 34.5789 21.7182 50.2821 21.7144L80.7453 22.1176C81.4417 22.1274 82.1256 22.29 82.7402 22.5921C83.3548 22.8941 83.8825 23.3268 84.2794 23.8543L102.457 48.0534L126.875 51.8045V56.0786L122.803 76.0946C121.601 82.0023 119.547 84.9782 111.122 85.9109L76.5855 91.3569L76.3571 125.004H85.1071L85.2895 98.165L112.278 93.9058C118.392 93.213 122.903 91.397 126.066 88.3555C128.77 85.7551 130.416 82.433 131.403 77.581L135.625 56.8281V44.9727L107.543 40.659Z" fill="#F8F8F8"/>
<path d="M134.936 126.667H128.745L128.784 122.096H134.936C136.473 122.096 137.768 121.751 138.823 121.061C139.878 120.358 140.672 119.336 141.206 117.995C141.753 116.654 142.026 115.033 142.026 113.132V111.745C142.026 110.286 141.87 109.004 141.557 107.897C141.258 106.79 140.809 105.859 140.21 105.104C139.611 104.349 138.875 103.783 138.003 103.405C137.13 103.014 136.128 102.819 134.995 102.819H128.628V98.2292H134.995C136.896 98.2292 138.634 98.5547 140.21 99.2057C141.798 99.8438 143.172 100.762 144.331 101.96C145.49 103.158 146.382 104.59 147.007 106.257C147.645 107.91 147.964 109.753 147.964 111.784V113.132C147.964 115.15 147.645 116.992 147.007 118.659C146.382 120.326 145.49 121.758 144.331 122.956C143.185 124.141 141.811 125.059 140.21 125.71C138.621 126.348 136.863 126.667 134.936 126.667ZM132.065 98.2292V126.667H126.206V98.2292H132.065ZM175.581 111.784V113.132C175.581 115.293 175.288 117.233 174.702 118.952C174.116 120.671 173.289 122.135 172.221 123.346C171.154 124.544 169.878 125.462 168.393 126.1C166.922 126.738 165.288 127.057 163.491 127.057C161.707 127.057 160.073 126.738 158.589 126.1C157.117 125.462 155.841 124.544 154.76 123.346C153.68 122.135 152.84 120.671 152.241 118.952C151.655 117.233 151.362 115.293 151.362 113.132V111.784C151.362 109.609 151.655 107.669 152.241 105.964C152.827 104.245 153.654 102.78 154.721 101.569C155.802 100.358 157.078 99.4336 158.549 98.7956C160.034 98.1576 161.668 97.8386 163.452 97.8386C165.249 97.8386 166.883 98.1576 168.354 98.7956C169.839 99.4336 171.115 100.358 172.182 101.569C173.263 102.78 174.096 104.245 174.682 105.964C175.281 107.669 175.581 109.609 175.581 111.784ZM169.663 113.132V111.745C169.663 110.234 169.526 108.906 169.253 107.76C168.979 106.615 168.576 105.651 168.042 104.87C167.508 104.089 166.857 103.503 166.089 103.112C165.32 102.708 164.441 102.507 163.452 102.507C162.462 102.507 161.583 102.708 160.815 103.112C160.06 103.503 159.415 104.089 158.882 104.87C158.361 105.651 157.964 106.615 157.69 107.76C157.417 108.906 157.28 110.234 157.28 111.745V113.132C157.28 114.629 157.417 115.957 157.69 117.116C157.964 118.262 158.367 119.232 158.901 120.026C159.435 120.807 160.086 121.4 160.854 121.803C161.622 122.207 162.501 122.409 163.491 122.409C164.48 122.409 165.359 122.207 166.128 121.803C166.896 121.4 167.54 120.807 168.061 120.026C168.582 119.232 168.979 118.262 169.253 117.116C169.526 115.957 169.663 114.629 169.663 113.132ZM202.339 111.803V123.073C201.896 123.607 201.212 124.186 200.288 124.811C199.363 125.423 198.172 125.951 196.714 126.393C195.255 126.836 193.491 127.057 191.421 127.057C189.585 127.057 187.911 126.758 186.401 126.159C184.891 125.547 183.589 124.655 182.495 123.483C181.414 122.311 180.581 120.879 179.995 119.186C179.409 117.48 179.116 115.534 179.116 113.346V111.569C179.116 109.382 179.396 107.435 179.956 105.729C180.529 104.023 181.342 102.585 182.397 101.413C183.452 100.241 184.708 99.349 186.167 98.737C187.625 98.125 189.246 97.819 191.03 97.819C193.504 97.819 195.535 98.2227 197.124 99.03C198.712 99.8242 199.923 100.931 200.757 102.35C201.603 103.757 202.124 105.371 202.319 107.194H196.635C196.492 106.23 196.219 105.391 195.815 104.674C195.411 103.958 194.832 103.398 194.077 102.995C193.335 102.591 192.371 102.389 191.186 102.389C190.21 102.389 189.337 102.591 188.569 102.995C187.814 103.385 187.176 103.965 186.655 104.733C186.134 105.501 185.737 106.452 185.464 107.585C185.19 108.717 185.053 110.033 185.053 111.53V113.346C185.053 114.831 185.197 116.146 185.483 117.292C185.77 118.424 186.193 119.382 186.753 120.163C187.326 120.931 188.029 121.51 188.862 121.901C189.695 122.292 190.665 122.487 191.772 122.487C192.697 122.487 193.465 122.409 194.077 122.253C194.702 122.096 195.203 121.908 195.581 121.686C195.971 121.452 196.271 121.23 196.479 121.022V115.983H191.128V111.803H202.339ZM215.444 122.663C216.134 122.663 216.746 122.533 217.28 122.272C217.814 121.999 218.23 121.621 218.53 121.139C218.842 120.645 219.005 120.065 219.018 119.401H224.311C224.298 120.885 223.901 122.207 223.12 123.366C222.339 124.512 221.29 125.417 219.975 126.081C218.66 126.732 217.189 127.057 215.561 127.057C213.921 127.057 212.488 126.784 211.264 126.237C210.053 125.69 209.044 124.935 208.237 123.971C207.43 122.995 206.824 121.862 206.421 120.573C206.017 119.271 205.815 117.878 205.815 116.393V115.827C205.815 114.329 206.017 112.936 206.421 111.647C206.824 110.345 207.43 109.212 208.237 108.249C209.044 107.272 210.053 106.51 211.264 105.964C212.475 105.417 213.895 105.143 215.522 105.143C217.254 105.143 218.771 105.475 220.073 106.139C221.388 106.803 222.417 107.754 223.159 108.991C223.914 110.215 224.298 111.667 224.311 113.346H219.018C219.005 112.643 218.855 112.005 218.569 111.432C218.296 110.859 217.892 110.404 217.358 110.065C216.837 109.714 216.193 109.538 215.424 109.538C214.604 109.538 213.934 109.714 213.413 110.065C212.892 110.404 212.488 110.872 212.202 111.471C211.915 112.057 211.714 112.728 211.596 113.483C211.492 114.225 211.44 115.007 211.44 115.827V116.393C211.44 117.214 211.492 118.001 211.596 118.757C211.701 119.512 211.896 120.182 212.182 120.768C212.482 121.354 212.892 121.816 213.413 122.155C213.934 122.494 214.611 122.663 215.444 122.663ZM238.979 121.901V112.487C238.979 111.81 238.869 111.23 238.647 110.749C238.426 110.254 238.081 109.87 237.612 109.596C237.156 109.323 236.564 109.186 235.835 109.186C235.21 109.186 234.669 109.297 234.214 109.518C233.758 109.727 233.406 110.033 233.159 110.436C232.911 110.827 232.788 111.289 232.788 111.823H227.163C227.163 110.924 227.371 110.072 227.788 109.264C228.204 108.457 228.81 107.747 229.604 107.135C230.398 106.51 231.342 106.022 232.436 105.671C233.543 105.319 234.78 105.143 236.147 105.143C237.788 105.143 239.246 105.417 240.522 105.964C241.798 106.51 242.801 107.331 243.53 108.424C244.272 109.518 244.643 110.885 244.643 112.526V121.569C244.643 122.728 244.715 123.678 244.858 124.421C245.001 125.15 245.21 125.788 245.483 126.335V126.667H239.799C239.526 126.094 239.318 125.378 239.174 124.518C239.044 123.646 238.979 122.773 238.979 121.901ZM239.721 113.796L239.76 116.979H236.616C235.874 116.979 235.229 117.064 234.682 117.233C234.135 117.402 233.686 117.643 233.335 117.956C232.983 118.255 232.723 118.607 232.553 119.01C232.397 119.414 232.319 119.857 232.319 120.339C232.319 120.82 232.43 121.257 232.651 121.647C232.872 122.025 233.191 122.324 233.608 122.546C234.025 122.754 234.513 122.858 235.073 122.858C235.919 122.858 236.655 122.689 237.28 122.35C237.905 122.012 238.387 121.595 238.725 121.1C239.077 120.605 239.259 120.137 239.272 119.694L240.757 122.077C240.548 122.611 240.262 123.164 239.897 123.737C239.546 124.31 239.096 124.85 238.549 125.358C238.003 125.853 237.345 126.263 236.577 126.589C235.809 126.901 234.897 127.057 233.842 127.057C232.501 127.057 231.284 126.79 230.19 126.257C229.109 125.71 228.25 124.961 227.612 124.01C226.987 123.047 226.674 121.953 226.674 120.729C226.674 119.622 226.883 118.639 227.299 117.78C227.716 116.921 228.328 116.198 229.135 115.612C229.956 115.013 230.978 114.564 232.202 114.264C233.426 113.952 234.845 113.796 236.46 113.796H239.721ZM254.917 96.6667V126.667H249.272V96.6667H254.917ZM265.503 96.6667V126.667H259.858V96.6667H265.503Z" fill="white"/>
</svg>
